<?xml version="1.0" encoding="utf-8"?>
<!-- Generator: Adobe Illustrator 15.1.0, SVG Export Plug-In . SVG Version: 6.00 Build 0)  -->
<!DOCTYPE svg PUBLIC "-//W3C//DTD SVG 1.1//EN" "http://www.w3.org/Graphics/SVG/1.1/DTD/svg11.dtd">
<svg version="1.1"
	 id="Layer_1" xmlns:svg="http://www.w3.org/2000/svg" xmlns:sodipodi="http://sodipodi.sourceforge.net/DTD/sodipodi-0.dtd" xmlns:rdf="http://www.w3.org/1999/02/22-rdf-syntax-ns#" xmlns:inkscape="http://www.inkscape.org/namespaces/inkscape" xmlns:dc="http://purl.org/dc/elements/1.1/" xmlns:cc="http://creativecommons.org/ns#"
	 xmlns="http://www.w3.org/2000/svg" xmlns:xlink="http://www.w3.org/1999/xlink" x="0px" y="0px" width="75px" height="75px"
	 viewBox="37.5 37.5 75 75" enable-background="new 37.5 37.5 75 75" xml:space="preserve">
<g id="g4571">
	<rect id="rect2987" x="37.5" y="37.5" fill="#3E4041" width="75" height="75"/>
	<path id="Behance_4_" fill="#EEEEEE" d="M98.618,61.93H83.937v-3.646h14.682V61.93z M74.163,76.885
		c0.948,1.466,1.421,3.249,1.421,5.34c0,2.163-0.535,4.103-1.62,5.818c-0.691,1.134-1.549,2.093-2.58,2.863
		c-1.161,0.892-2.535,1.503-4.114,1.831c-1.584,0.327-3.3,0.492-5.148,0.492H45.703V56.771H63.31
		c4.439,0.073,7.585,1.358,9.443,3.883c1.114,1.549,1.666,3.407,1.666,5.567c0,2.229-0.559,4.013-1.684,5.367
		c-0.626,0.76-1.552,1.451-2.776,2.075C71.814,74.343,73.223,75.412,74.163,76.885z M54.112,71.145h7.715
		c1.584,0,2.867-0.302,3.854-0.903c0.985-0.603,1.478-1.671,1.478-3.206c0-1.696-0.651-2.821-1.958-3.363
		c-1.123-0.376-2.56-0.571-4.303-0.571h-6.785V71.145L54.112,71.145z M67.902,81.705c0-1.895-0.774-3.204-2.319-3.906
		c-0.864-0.399-2.083-0.604-3.646-0.618h-7.825v9.715h7.704c1.583,0,2.808-0.207,3.692-0.64
		C67.102,85.462,67.902,83.95,67.902,81.705z M104.065,75.773c0.177,1.193,0.256,2.924,0.225,5.185H85.276
		c0.105,2.625,1.01,4.46,2.73,5.51c1.035,0.659,2.291,0.98,3.764,0.98c1.551,0,2.815-0.393,3.788-1.199
		c0.531-0.427,0.999-1.031,1.403-1.791h6.969c-0.183,1.549-1.021,3.122-2.528,4.72c-2.337,2.539-5.614,3.813-9.821,3.813
		c-3.477,0-6.541-1.075-9.2-3.215c-2.65-2.147-3.982-5.63-3.982-10.461c0-4.53,1.195-7.999,3.593-10.412
		c2.408-2.417,5.514-3.621,9.343-3.621c2.27,0,4.315,0.404,6.14,1.221c1.822,0.816,3.324,2.102,4.51,3.868
		C103.055,71.926,103.744,73.725,104.065,75.773z M97.206,76.454c-0.128-1.815-0.734-3.189-1.825-4.127
		c-1.082-0.941-2.435-1.415-4.047-1.415c-1.756,0-3.109,0.506-4.074,1.498c-0.969,0.991-1.572,2.338-1.819,4.044H97.206
		L97.206,76.454z"/>
</g>
</svg>
