<?xml version="1.0" encoding="utf-8"?>
<!-- Generator: Adobe Illustrator 15.1.0, SVG Export Plug-In . SVG Version: 6.00 Build 0)  -->
<!DOCTYPE svg PUBLIC "-//W3C//DTD SVG 1.1//EN" "http://www.w3.org/Graphics/SVG/1.1/DTD/svg11.dtd">
<svg version="1.1" id="Layer_1" xmlns="http://www.w3.org/2000/svg" xmlns:xlink="http://www.w3.org/1999/xlink" x="0px" y="0px"
	 width="75px" height="75px" viewBox="218.5 218.5 75 75" enable-background="new 218.5 218.5 75 75" xml:space="preserve">
<g>
	<polyline fill="#3E4041" points="218.5,293.5 293.5,293.5 293.5,218.5 218.5,218.5 218.5,293.5 	"/>
	<polyline opacity="0.102" fill="#3E4041" enable-background="new    " points="266.4,241.938 244.867,242.23 241.645,257.465 
		260.102,293.5 293.5,293.5 293.5,282.221 266.4,241.938 	"/>
	<path fill="#5DA3C2" d="M261.83,251.634c-0.011,0.051-0.024,0.116-0.033,0.159l-0.385,1.803l0.405-1.899L261.83,251.634"/>
	<polyline fill="#5DA3C2" points="250.29,252.84 250.077,253.594 250.29,252.841 250.29,252.84 	"/>
	<path fill="#EEEEEE" d="M265.988,236.811c0.572,1.298,0.942,3.455,0.39,5.034c2.26,1.929,3.037,6.62,1.946,10.454
		c3.221,0.246,7.058-0.118,9.533,0.87c-2.314-0.297-5.477-0.881-8.463-0.678c-0.565,0.039-1.403-0.021-1.362,0.774
		c3.456,0.271,6.892,0.567,9.729,1.453c-2.814-0.46-6.232-1.16-9.729-1.258c-1.445,2.852-4.354,4.253-8.367,4.548
		c0.432,0.938,1.258,1.296,1.46,2.807c0.301,2.257-0.472,5.562,0.29,7.065c0.366,0.72,0.962,0.739,1.363,1.355
		c-0.983,1.164-3.421-0.13-3.698-1.355c-0.476-2.099,0.725-5.353-0.583-6.775c0.093,2.289-0.541,5.504,0.098,7.549
		c0.252,0.805,0.979,1.115,0.778,1.84c-4.569,0.464-2.66-5.914-3.407-9.679c-0.689,0.049-0.387,1.032-0.389,1.452
		c-0.02,3.677,0.752,8.719-3.21,8.227c-0.116-0.771,0.532-1.035,0.778-1.741c0.723-2.068-0.135-5.15,0.196-7.647
		c-1.513,1.141,0.159,5.121-0.778,7.162c-0.541,1.175-2.28,1.686-3.6,1.161c0.172-0.875,1.076-0.733,1.458-1.548
		c0.535-1.137,0.004-2.772,0.196-4.452c-2.8,0.559-4.972-0.081-6.034-1.839c-0.475-0.79-0.594-1.721-1.168-2.42
		c-0.571-0.699-1.485-0.794-1.75-1.741c3.467-0.834,3.6,3.567,6.714,3.677c0.954,0.034,1.45-0.275,2.334-0.483
		c0.247-1.11,0.777-1.938,1.557-2.518c-3.874-0.53-7.074-1.736-8.562-4.644c-3.522,0.173-6.745,0.644-9.73,1.354
		c2.709-0.984,6.052-1.337,9.633-1.452c-0.211-1.269-2.061-0.92-3.21-0.871c-2.135,0.094-4.822,0.359-6.519,0.678
		c2.46-0.877,5.911-0.768,9.244-0.774c-1.019-3.195-0.666-8.272,1.557-10.163c-0.63-1.587-0.434-4.184,0.389-5.421
		c2.481,0.112,3.987,1.194,5.546,2.227c1.934-0.55,3.966-0.824,6.616-0.678c1.114,0.062,2.273,0.562,3.112,0.483
		c0.823-0.077,1.731-1.001,2.529-1.354C263.917,237.029,264.798,236.854,265.988,236.811"/>
</g>
</svg>
