<?xml version="1.0" encoding="utf-8"?>
<!-- Generator: Adobe Illustrator 15.1.0, SVG Export Plug-In . SVG Version: 6.00 Build 0)  -->
<!DOCTYPE svg PUBLIC "-//W3C//DTD SVG 1.1//EN" "http://www.w3.org/Graphics/SVG/1.1/DTD/svg11.dtd">
<svg version="1.1"
	 id="Layer_1" xmlns:svg="http://www.w3.org/2000/svg" xmlns:sodipodi="http://sodipodi.sourceforge.net/DTD/sodipodi-0.dtd" xmlns:rdf="http://www.w3.org/1999/02/22-rdf-syntax-ns#" xmlns:inkscape="http://www.inkscape.org/namespaces/inkscape" xmlns:dc="http://purl.org/dc/elements/1.1/" xmlns:cc="http://creativecommons.org/ns#"
	 xmlns="http://www.w3.org/2000/svg" xmlns:xlink="http://www.w3.org/1999/xlink" x="0px" y="0px" width="75px" height="75px"
	 viewBox="218.5 218.5 75 75" enable-background="new 218.5 218.5 75 75" xml:space="preserve">
<g id="g3763">
	<rect id="rect2987" x="218.5" y="218.5" fill="#3E4041" width="75" height="75"/>
	<g id="layer1_2_" transform="matrix(1.418485,0,0,1.418485,-507.62367,-651.3318)">
		<path id="path5_1_" fill="#EEEEEE" d="M558.991,626.837c-1.52,0.675-3.152,1.13-4.867,1.335c1.749-1.049,3.093-2.71,3.726-4.688
			c-1.638,0.971-3.451,1.675-5.382,2.056c-1.545-1.647-3.749-2.676-6.185-2.676c-4.681,0-8.476,3.795-8.476,8.475
			c0,0.664,0.075,1.31,0.22,1.931c-7.044-0.354-13.288-3.728-17.467-8.856c-0.73,1.252-1.147,2.707-1.147,4.261
			c0,2.94,1.495,5.533,3.77,7.053c-1.389-0.044-2.695-0.425-3.838-1.06c-0.001,0.035-0.001,0.071-0.001,0.106
			c0,4.106,2.922,7.53,6.798,8.311c-0.711,0.192-1.46,0.297-2.232,0.297c-0.547,0-1.077-0.055-1.594-0.152
			c1.078,3.366,4.208,5.816,7.916,5.885c-2.9,2.273-6.554,3.628-10.526,3.628c-0.683,0-1.358-0.041-2.021-0.12
			c3.751,2.405,8.206,3.809,12.991,3.809c15.588,0,24.112-12.914,24.112-24.112c0-0.368-0.009-0.734-0.024-1.097
			C556.418,630.029,557.856,628.537,558.991,626.837L558.991,626.837L558.991,626.837z"/>
	</g>
</g>
</svg>
